<?xml version="1.0" encoding="UTF-8" standalone="no"?>
<!-- Created with Inkscape (http://www.inkscape.org/) -->

<svg
   width="500"
   height="500"
   viewBox="0 0 198.57642 192.46576"
   version="1.1"
   id="svg1"
   xml:space="preserve"
   xmlns="http://www.w3.org/2000/svg"
   xmlns:svg="http://www.w3.org/2000/svg"><defs
     id="defs1" /><g
     id="layer1"
     transform="matrix(1.5100182,0,0,1.5100182,-59.301587,-109.70839)"><path
       style="fill:#005cff;fill-opacity:1"
       d="m 77.695849,199.73912 c -3.00248,-0.65452 -3.0035,-0.65558 -14.166471,-14.59397 C 58.75105,179.1788 53.162459,172.21364 51.110286,169.66703 38.035855,153.4425 38.561326,154.43458 39.969153,148.63265 c 0.423845,-1.74675 0.951146,-4.04057 1.581374,-6.87916 0.226161,-1.01865 0.717822,-3.16178 1.09258,-4.7625 0.374758,-1.60073 0.863269,-3.74386 1.08558,-4.76251 0.597974,-2.73995 1.045358,-4.73249 1.693098,-7.54062 0.560753,-2.43102 1.175393,-5.14993 1.973799,-8.73125 0.776602,-3.48352 0.988103,-4.39413 1.321236,-5.68854 0.187258,-0.72761 0.536022,-2.21589 0.775032,-3.30729 1.644035,-7.507281 2.06471,-8.585861 4.017423,-10.300361 0.737218,-0.64729 12.948254,-6.89756 13.475624,-6.89756 0.0403,0 1.84236,-0.84657 4.00467,-1.88127 9.64062,-4.613184 11.00779,-5.262481 11.08082,-5.262481 0.0427,0 2.65671,-1.250156 5.80901,-2.778125 3.15231,-1.527969 5.76836,-2.778125 5.81345,-2.778125 0.0451,0 1.96566,-0.903113 4.26792,-2.006919 6.625971,-3.176782 7.584111,-3.185595 13.981111,-0.128595 2.15328,1.029012 3.94919,1.870931 3.9909,1.870931 0.0417,0 2.41461,1.131827 5.2731,2.515171 2.85848,1.383344 7.09296,3.406673 9.40996,4.496287 2.317,1.089614 6.55149,3.112944 9.40997,4.496286 2.85848,1.38335 5.23031,2.51517 5.27072,2.51517 0.0404,0 2.31996,1.08134 5.06566,2.40298 8.16123,3.92837 7.99235,3.70074 10.28884,13.868901 0.65732,2.91041 1.32904,5.76791 1.4927,6.35 0.16366,0.58208 0.46312,1.83224 0.66547,2.77812 0.49844,2.33008 0.60807,2.81025 2.47683,10.84792 0.89659,3.8563 1.8009,7.78536 2.00957,8.73125 0.46088,2.08909 0.5478,2.46799 2.09418,9.12813 2.3082,9.94122 2.81005,8.47617 -7.15995,20.90208 -3.50278,4.36562 -10.51245,13.11672 -15.57704,19.44687 -9.72696,12.1576 -10.54106,13.07091 -12.53375,14.06112 -1.47439,0.73266 -53.214781,1.09997 -56.423191,0.40056 z m 21.49937,-23.45498 c 1.407511,-0.52661 2.998661,-1.92899 4.055561,-3.5744 0.95226,-1.48251 0.76479,-64.16654 -0.19632,-65.64361 -3.308621,-5.08481 -10.340861,-4.68042 -13.248971,0.7619 -0.91986,1.72145 -0.94783,62.55775 -0.0297,64.48483 1.71146,3.59202 5.81217,5.32091 9.41938,3.97128 z m 13.076091,-3.09191 c 1.431,-1.01006 8.13823,-5.7513 14.90495,-10.53609 10.95602,-7.74708 14.21631,-10.04821 23.41563,-16.52691 4.17062,-2.9372 4.6302,-3.54796 4.6302,-6.15327 0,-2.40209 -0.55482,-3.0706 -5.35339,-6.45033 -6.82508,-4.80704 -12.43638,-8.76857 -20.57577,-14.52631 -4.29287,-3.03674 -9.82927,-6.94906 -12.30313,-8.69403 -2.47385,-1.74498 -5.14273,-3.62807 -5.93084,-4.18464 -2.22508,-1.57139 -4.64296,-1.38105 -5.85731,0.46109 -0.84865,1.28739 -0.79772,65.91381 0.0529,67.10838 1.51847,2.13249 3.48816,1.99272 7.01677,-0.49789 z m 8.93551,-23.33401 c -2.31682,-0.79079 -4.18505,-2.46846 -5.19502,-4.66515 -0.8186,-1.78046 -1.05456,-9.76889 -0.3592,-12.16083 2.0954,-7.20795 12.00597,-7.96804 15.6546,-1.20063 0.80281,1.48905 0.89845,11.35889 0.12696,13.10296 -1.87679,4.2428 -6.16864,6.30898 -10.22734,4.92365 z m 3.05902,-5.32661 c 0,-0.47037 -0.17638,-0.52917 -1.5875,-0.52917 -2.22323,0 -2.42498,-2.40714 -0.37366,-4.45846 2.97975,-2.97974 2.79945,-7.97695 -0.28779,-7.97695 -1.65567,0 -2.24896,0.81695 -2.24896,3.09679 0,2.47327 1.11293,2.47899 1.1847,0.006 0.0494,-1.70408 0.31234,-2.13095 1.23218,-2.00081 1.41605,0.20036 1.03745,4.21693 -0.5477,5.81043 -1.49687,1.50477 -1.86552,2.47737 -1.86771,4.9276 -0.001,1.65365 -0.001,1.65365 2.24749,1.65365 2.07257,0 2.24895,-0.0415 2.24895,-0.52917 z m 3.37799,-6.28385 c 0.0707,-6.68073 0.0707,-6.68073 -0.58601,-6.68073 -0.70583,0 -1.41482,0.8971 -0.94061,1.19018 0.16491,0.10192 0.2653,2.46782 0.2653,6.25217 0,6.0882 0,6.0882 0.59531,6.00365 0.59532,-0.0845 0.59532,-0.0845 0.66601,-6.76527 z m -39.096741,2.3151 v -22.75417 h -13.35215 c -12.930086,0 -13.360803,0.0162 -13.626038,0.51178 -0.42971,0.80292 -0.359608,8.87729 0.08024,9.24234 0.243403,0.202 3.656078,0.31555 10.914068,0.36312 l 10.55992,0.0692 0.0741,3.55066 c 0.0477,2.28245 -0.0277,3.65273 -0.21109,3.83645 -0.18032,0.18069 -2.59183,0.33447 -6.55643,0.4181 l -6.2712,0.13229 -0.0727,4.46293 c -0.0933,5.72673 -0.74307,5.19436 6.34018,5.19436 7.36188,0 6.82938,-0.29914 6.82938,3.83646 0,4.21975 1.07881,3.83646 -10.79813,3.83646 -11.713968,0 -10.470506,-0.57767 -10.585353,4.9176 -0.121452,5.81131 -1.906317,5.13657 13.587583,5.13657 h 13.08757 z"
       id="use1" /></g><path
     style="fill:#ffffff;stroke-width:0.363971"
     d="m 82.542067,156.12539 c -2.066975,-0.81854 -4.779418,-3.21177 -5.735394,-5.06043 -0.95096,-1.83895 -1.25508,-13.54948 -1.257591,-48.42525 -0.0024,-32.4253 0.344736,-48.132435 1.09551,-49.578806 2.598446,-5.005933 8.467492,-7.380306 13.790448,-5.579047 2.83831,0.960469 5.629389,3.788683 5.950873,6.03005 0.128559,0.8963 0.419487,9.4914 0.646507,19.100226 0.406313,17.197503 0.221512,71.326407 -0.260054,76.170947 -0.203909,2.05131 -0.394348,2.47091 -1.862656,4.10402 -2.5019,2.78271 -4.370424,3.72188 -7.696245,3.8683 -2.157066,0.095 -3.193737,-0.0448 -4.671398,-0.63001 z"
     id="path1" /><path
     style="fill:#ffffff;stroke-width:0.363971"
     d="m 101.48003,153.97767 c -0.63782,-0.3889 -1.34425,-1.05197 -1.569832,-1.47349 -0.953482,-1.7816 -1.478254,-65.415757 -0.742408,-90.025057 0.290581,-9.718066 0.394499,-10.938018 0.98755,-11.59333 1.49314,-1.649897 3.61909,-2.141053 5.87043,-1.356233 1.34483,0.46881 63.08008,43.961592 65.9038,46.429543 2.28021,1.992921 2.9583,3.376832 2.9583,6.037637 0,2.39096 -0.82314,4.00583 -2.95077,5.78899 -3.46384,2.90302 -63.99655,45.34624 -65.74694,46.09923 -2.29056,0.98537 -3.21626,1.00359 -4.71013,0.0927 z m 28.58186,-36.94785 c 3.14745,-0.42732 6.35719,-2.78859 8.38995,-6.17214 1.18788,-1.97724 1.24406,-2.23886 1.47427,-6.86563 0.33192,-6.670724 -0.11968,-13.317832 -1.02542,-15.093226 -0.94803,-1.858298 -4.04513,-4.697471 -6.15435,-5.641811 -2.65288,-1.187751 -7.28171,-1.304197 -10.06984,-0.253325 -2.63533,0.993275 -5.3766,3.450296 -6.64741,5.958125 -1.32978,2.624196 -1.80407,7.841883 -1.29042,14.195887 0.57075,7.06042 2.01551,9.81549 6.53667,12.46506 1.77087,1.03781 5.18177,1.95464 6.47833,1.74136 0.40037,-0.0659 1.43907,-0.2163 2.30822,-0.3343 z"
     id="path2" /><path
     style="fill:#ffffff;stroke-width:0.363971"
     d="m 37.354435,136.47801 c -3.091129,-0.44935 -3.159064,-0.60238 -3.03182,-6.82929 0.06016,-2.94402 0.198784,-5.65434 0.308051,-6.02294 0.453356,-1.52931 1.94337,-1.69515 15.312607,-1.70432 6.962817,-0.005 13.296913,-0.15651 14.075773,-0.33719 2.425244,-0.56261 2.600986,-0.95708 2.48712,-5.5827 -0.05524,-2.24434 -0.187505,-4.36214 -0.293907,-4.70624 -0.330494,-1.06876 -2.615629,-1.37208 -10.352781,-1.37418 -6.170789,-0.002 -7.612221,-0.10067 -8.280331,-0.56863 -0.784362,-0.54939 -0.808926,-0.76317 -0.808926,-7.03994 v -6.473341 l 9.374798,-0.345321 c 5.156139,-0.189928 9.578382,-0.471143 9.827207,-0.624924 0.328666,-0.203129 0.452406,-1.8028 0.452406,-5.848599 V 83.4514 L 50.392181,83.273396 C 38.81865,83.144899 34.240938,82.9766 33.9326,82.668262 33.296439,82.032098 33.319683,69.720888 33.958239,69.0818 34.332306,68.707428 38.575075,68.587529 54.2496,68.508376 L 74.068,68.408298 v 34.222322 34.22232 l -17.379595,-0.0454 c -9.558777,-0.025 -18.259068,-0.17326 -19.333983,-0.32952 z"
     id="path3" /><path
     style="fill:#ffffff;stroke-width:0.0643416"
     d="m 122.87951,109.25416 c -0.52374,-0.0598 -0.89,-0.2163 -1.05914,-0.45266 -0.20141,-0.28143 -0.26762,-1.01456 -0.22373,-2.47714 0.0978,-3.25766 0.56793,-4.49493 2.4988,-6.575722 0.78288,-0.843661 1.09781,-1.284121 1.46295,-2.046044 0.34308,-0.715881 0.54107,-1.293935 0.75017,-2.190174 0.16207,-0.694663 0.1799,-0.888481 0.1832,-1.992026 0.003,-1.090047 -0.0118,-1.271701 -0.13924,-1.676742 -0.29045,-0.923213 -0.69641,-1.250796 -1.55007,-1.250796 -0.42255,0 -0.54447,0.02471 -0.7264,0.147259 -0.47429,0.319458 -0.66176,0.997791 -0.76252,2.758906 -0.0354,0.618535 -0.10866,1.339638 -0.16284,1.602454 -0.13106,0.635815 -0.39956,1.16427 -0.63332,1.246478 -0.33155,0.1166 -0.53534,-0.142086 -0.76238,-0.967716 -0.12321,-0.448029 -0.13978,-0.669753 -0.13899,-1.859843 7.9e-4,-1.124845 0.0234,-1.456841 0.13553,-1.982023 0.34325,-1.608283 1.06601,-2.320245 2.5405,-2.502561 2.09367,-0.258874 3.57397,0.823285 4.11022,3.00473 0.20053,0.815758 0.19904,2.282525 -0.003,3.249247 -0.42734,2.041639 -1.35041,3.831209 -2.78114,5.391853 -1.33768,1.45912 -2.00164,2.49231 -2.2824,3.55162 -0.16708,0.63039 -0.14989,1.53905 0.0383,2.0235 0.17076,0.43961 0.61258,0.94878 0.99061,1.14164 0.55959,0.28549 0.75946,0.32156 2.06879,0.37344 1.50329,0.0596 1.70995,0.11381 1.83104,0.48073 0.0925,0.28013 0.0416,0.62138 -0.11318,0.7589 -0.24186,0.21495 -0.60838,0.25188 -2.71717,0.2738 -1.15011,0.012 -2.29953,-0.002 -2.55428,-0.0311 z"
     id="path4" /><path
     style="fill:#ffffff;stroke-width:0.0643416"
     d="m 131.95014,109.1769 c -0.30717,-0.37011 -0.34197,-1.12286 -0.40553,-8.77196 -0.067,-8.069837 -0.12727,-9.373347 -0.4488,-9.715601 -0.50251,-0.534895 0.5163,-1.690878 1.5002,-1.702197 0.47922,-0.0055 0.6237,0.183264 0.76111,0.994471 0.15817,0.933775 0.0409,15.801437 -0.13957,17.693917 -0.11995,1.25795 -0.2473,1.49458 -0.83683,1.55499 -0.26193,0.0268 -0.37555,0.0127 -0.43058,-0.0536 z"
     id="path5" /></svg>
